<svg width="85" height="87" viewBox="0 0 85 87" fill="none" xmlns="http://www.w3.org/2000/svg">
<path d="M65.1679 46.378C65.1749 48.7273 64.3104 50.9938 62.7453 52.729V52.7433C62.3846 54.7054 61.5943 56.5609 60.4322 58.1734C59.2702 59.7859 57.7661 61.1146 56.0302 62.0619C57.0676 63.5047 57.8578 65.1137 58.3678 66.8216C58.4896 67.1915 58.5519 67.5786 58.5519 67.9685C58.5515 68.6987 58.3391 69.4127 57.9412 70.0218C57.5433 70.631 56.9773 71.1084 56.3136 71.3949C55.5678 71.7025 54.7443 71.7598 53.964 71.5585C53.1836 71.3573 52.4877 70.9079 51.9785 70.2767C50.8143 68.9014 49.293 67.8834 47.5867 67.3377C42.005 65.4453 40.3616 63.5529 39.9933 60.3129H39.8941C37.9888 60.3169 36.0999 59.957 34.3265 59.252C33.2582 60.5144 31.8792 61.4688 30.3292 62.0185C28.7792 62.5681 27.1131 62.6936 25.4998 62.3822C23.8864 62.0708 22.383 61.3336 21.1418 60.2452C19.9005 59.1568 18.9654 57.7558 18.4313 56.1841C16.5172 56.8976 14.4609 57.1319 12.438 56.8669C10.415 56.602 8.48546 55.8458 6.81393 54.6627C5.14239 53.4796 3.77852 51.9048 2.83871 50.0728C1.8989 48.2407 1.41105 46.2057 1.4168 44.1415C1.41189 41.3867 2.29195 38.7049 3.92434 36.5003C3.71893 35.9108 3.61356 35.2903 3.61267 34.6652C3.61718 33.3757 4.06057 32.1271 4.86821 31.1297C5.67584 30.1322 6.79839 29.4468 8.04691 29.1888C8.02302 28.9698 8.01356 28.7495 8.01858 28.5293C8.0164 27.3052 8.32153 26.1005 8.90534 25.0284C9.48915 23.9562 10.3325 23.0518 11.3563 22.3997C12.3801 21.7477 13.5508 21.3696 14.7586 21.3008C15.9663 21.2319 17.1716 21.4747 18.2612 22.0063C19.0438 20.6715 20.1074 19.5275 21.3763 18.6557C22.6451 17.7839 24.0882 17.2056 25.6029 16.962C27.1176 16.7184 28.6667 16.8155 30.1402 17.2462C31.6136 17.677 32.9752 18.4309 34.1282 19.4544C34.6609 18.5871 35.4195 17.8852 36.3207 17.4257C37.2219 16.9663 38.2309 16.7671 39.2366 16.8501C40.2424 16.933 41.2061 17.2949 42.0219 17.896C42.8377 18.4971 43.474 19.3141 43.8608 20.2572C45.6193 20.0541 47.4001 20.2107 49.0975 20.7176C50.795 21.2245 52.3744 22.0715 53.7421 23.2081C55.1098 24.3448 56.2379 25.748 57.0593 27.3344C57.8806 28.9209 58.3786 30.6581 58.5236 32.4431H58.5661C59.528 32.4482 60.4719 32.7073 61.3045 33.1948C62.1371 33.6823 62.8294 34.3813 63.3131 35.2227C63.7968 36.064 64.0551 37.0186 64.0623 37.992C64.0696 38.9654 63.8256 39.9238 63.3545 40.7725C64.5391 42.3949 65.1751 44.3608 65.1679 46.378Z" fill="#EF314C"/>
<path d="M63.3544 40.7725C63.8255 39.9238 64.0695 38.9654 64.0623 37.992C64.055 37.0187 63.7968 36.0641 63.3131 35.2227C62.8294 34.3813 62.137 33.6823 61.3044 33.1948C60.4718 32.7073 59.5279 32.4482 58.566 32.4431H58.5235C58.3785 30.6581 57.8806 28.9209 57.0592 27.3344C56.2378 25.748 55.1098 24.3448 53.7421 23.2082C52.3744 22.0715 50.7949 21.2245 49.0974 20.7176C47.4 20.2107 45.6192 20.0541 43.8608 20.2572C43.5838 19.58 43.177 18.965 42.6638 18.4478C42.1506 17.9306 41.5413 17.5214 40.8709 17.2439C40.2006 16.9663 39.4825 16.826 38.7583 16.8309C38.034 16.8358 37.3179 16.9858 36.6512 17.2724C37.9867 17.8357 39.0496 18.9078 39.6107 20.2572C41.3691 20.0541 43.1499 20.2107 44.8474 20.7176C46.5448 21.2245 48.1243 22.0715 49.492 23.2082C50.8597 24.3448 51.9877 25.748 52.8091 27.3344C53.6305 28.9209 54.1285 30.6581 54.2735 32.4431H54.316C55.2779 32.4482 56.2218 32.7073 57.0543 33.1948C57.8869 33.6823 58.5793 34.3813 59.063 35.2227C59.5467 36.0641 59.805 37.0187 59.8122 37.992C59.8195 38.9654 59.5755 39.9238 59.1044 40.7725C60.3806 42.531 61.0171 44.6818 60.9061 46.8607C60.7951 49.0396 59.9434 51.1127 58.4952 52.729V52.7433C58.1345 54.7054 57.3441 56.5609 56.1821 58.1734C55.0201 59.786 53.5159 61.1147 51.7801 62.062C52.8174 63.5047 53.6076 65.1137 54.1176 66.8216C54.2395 67.1915 54.3018 67.5786 54.3018 67.9685C54.2971 68.5581 54.1532 69.1381 53.8821 69.66C53.6111 70.182 53.2206 70.6308 52.7434 70.9691C53.3681 71.4335 54.1227 71.6846 54.8978 71.6861C55.673 71.6876 56.4284 71.4394 57.0549 70.9775C57.6813 70.5155 58.1462 69.8638 58.3823 69.1166C58.6183 68.3694 58.6132 67.5656 58.3677 66.8216C57.8577 65.1137 57.0675 63.5047 56.0302 62.062C57.766 61.1147 59.2702 59.786 60.4322 58.1734C61.5942 56.5609 62.3846 54.7054 62.7453 52.7433V52.729C64.1934 51.1127 65.0451 49.0396 65.1562 46.8607C65.2672 44.6818 64.6307 42.531 63.3544 40.7725Z" fill="#BB193B"/>
<path d="M7.08351 84.5843C10.2132 84.5843 12.7503 82.0169 12.7503 78.8498C12.7503 75.6827 10.2132 73.1152 7.08351 73.1152C3.95384 73.1152 1.41675 75.6827 1.41675 78.8498C1.41675 82.0169 3.95384 84.5843 7.08351 84.5843Z" fill="#FFDC00"/>
<path d="M7.08341 73.1152C6.35426 73.1183 5.63262 73.2644 4.95837 73.5453C6.00474 73.9718 6.90119 74.7051 7.5325 75.6511C8.16382 76.5971 8.50115 77.7125 8.50115 78.8541C8.50115 79.9956 8.16382 81.111 7.5325 82.057C6.90119 83.003 6.00474 83.7364 4.95837 84.1628C5.73345 84.4814 6.56862 84.6223 7.40391 84.5755C8.2392 84.5287 9.05389 84.2954 9.78949 83.8922C10.5251 83.489 11.1634 82.926 11.6585 82.2437C12.1536 81.5613 12.4933 80.7764 12.6531 79.9454C12.8129 79.1145 12.789 78.258 12.583 77.4375C12.3769 76.617 11.9939 75.8528 11.4615 75.1999C10.929 74.5469 10.2603 74.0214 9.50337 73.6609C8.74641 73.3005 7.91998 73.1141 7.08341 73.1152Z" fill="#FEC108"/>
<path d="M70.8346 84.5843C73.9643 84.5843 76.5014 82.0169 76.5014 78.8498C76.5014 75.6827 73.9643 73.1152 70.8346 73.1152C67.7049 73.1152 65.1678 75.6827 65.1678 78.8498C65.1678 82.0169 67.7049 84.5843 70.8346 84.5843Z" fill="#FFDC00"/>
<path d="M70.8345 73.1152C70.1054 73.1183 69.3837 73.2644 68.7095 73.5453C69.7558 73.9718 70.6523 74.7051 71.2836 75.6511C71.9149 76.5971 72.2522 77.7125 72.2522 78.8541C72.2522 79.9956 71.9149 81.111 71.2836 82.057C70.6523 83.003 69.7558 83.7364 68.7095 84.1628C69.4846 84.4814 70.3197 84.6223 71.155 84.5755C71.9903 84.5287 72.805 84.2954 73.5406 83.8922C74.2762 83.489 74.9145 82.926 75.4096 82.2437C75.9047 81.5613 76.2444 80.7764 76.4042 79.9454C76.564 79.1145 76.5401 78.258 76.3341 77.4375C76.128 76.617 75.745 75.8528 75.2126 75.1999C74.6801 74.5469 74.0114 74.0214 73.2545 73.6609C72.4975 73.3005 71.6711 73.1141 70.8345 73.1152Z" fill="#FEC108"/>
<path d="M56.6677 12.9027C59.7974 12.9027 62.3345 10.3352 62.3345 7.16812C62.3345 4.00103 59.7974 1.43359 56.6677 1.43359C53.5381 1.43359 51.001 4.00103 51.001 7.16812C51.001 10.3352 53.5381 12.9027 56.6677 12.9027Z" fill="#FFDC00"/>
<path d="M56.6676 1.4336C55.9385 1.43671 55.2168 1.58276 54.5426 1.86369C55.589 2.29012 56.4854 3.02346 57.1167 3.96946C57.748 4.91547 58.0854 6.03091 58.0854 7.17243C58.0854 8.31395 57.748 9.42939 57.1167 10.3754C56.4854 11.3214 55.589 12.0547 54.5426 12.4812C55.3177 12.7997 56.1528 12.9407 56.9881 12.8939C57.8234 12.8471 58.6381 12.6137 59.3737 12.2106C60.1093 11.8074 60.7476 11.2444 61.2427 10.562C61.7378 9.87963 62.0775 9.09478 62.2373 8.2638C62.3972 7.43283 62.3732 6.57635 62.1672 5.75585C61.9612 4.93535 61.5782 4.17119 61.0457 3.51824C60.5133 2.86528 59.8446 2.33972 59.0876 1.97929C58.3306 1.61886 57.5042 1.4325 56.6676 1.4336Z" fill="#FEC108"/>
<path d="M77.918 24.3718C81.0476 24.3718 83.5847 21.8043 83.5847 18.6372C83.5847 15.4701 81.0476 12.9027 77.918 12.9027C74.7883 12.9027 72.2512 15.4701 72.2512 18.6372C72.2512 21.8043 74.7883 24.3718 77.918 24.3718Z" fill="#FFDC00"/>
<path d="M77.9181 12.9027C77.189 12.9058 76.4673 13.0519 75.7931 13.3328C76.8395 13.7592 77.7359 14.4926 78.3672 15.4386C78.9985 16.3846 79.3359 17.5 79.3359 18.6415C79.3359 19.7831 78.9985 20.8985 78.3672 21.8445C77.7359 22.7905 76.8395 23.5239 75.7931 23.9503C76.5682 24.2688 77.4033 24.4098 78.2386 24.363C79.0739 24.3162 79.8886 24.0829 80.6242 23.6797C81.3598 23.2765 81.9981 22.7135 82.4932 22.0311C82.9883 21.3488 83.328 20.5639 83.4878 19.7329C83.6477 18.9019 83.6237 18.0455 83.4177 17.225C83.2117 16.4045 82.8287 15.6403 82.2962 14.9874C81.7638 14.3344 81.095 13.8088 80.3381 13.4484C79.5811 13.088 78.7547 12.9016 77.9181 12.9027Z" fill="#FEC108"/>
<path d="M77.918 44.4426C81.0476 44.4426 83.5847 41.8751 83.5847 38.708C83.5847 35.5409 81.0476 32.9735 77.918 32.9735C74.7883 32.9735 72.2512 35.5409 72.2512 38.708C72.2512 41.8751 74.7883 44.4426 77.918 44.4426Z" fill="#FFDC00"/>
<path d="M77.9181 32.9735C77.189 32.9766 76.4673 33.1227 75.7931 33.4036C76.8395 33.83 77.7359 34.5634 78.3672 35.5094C78.9985 36.4554 79.3359 37.5708 79.3359 38.7123C79.3359 39.8539 78.9985 40.9693 78.3672 41.9153C77.7359 42.8613 76.8395 43.5947 75.7931 44.0211C76.5682 44.3396 77.4033 44.4806 78.2386 44.4338C79.0739 44.387 79.8886 44.1537 80.6242 43.7505C81.3598 43.3473 81.9981 42.7843 82.4932 42.1019C82.9883 41.4195 83.328 40.6347 83.4878 39.8037C83.6477 38.9727 83.6237 38.1163 83.4177 37.2958C83.2117 36.4753 82.8287 35.7111 82.2962 35.0582C81.7638 34.4052 81.095 33.8796 80.3381 33.5192C79.5811 33.1588 78.7547 32.9724 77.9181 32.9735Z" fill="#FEC108"/>
<path d="M44.1824 36.9232C43.8137 36.8522 43.4321 36.9322 43.1216 37.1456C42.8111 37.3591 42.597 37.6885 42.5263 38.0615C42.2674 39.4421 41.633 40.7221 40.6944 41.7577C39.7558 42.7933 38.5503 43.5433 37.2134 43.9233C35.8766 44.3033 34.4614 44.2983 33.1273 43.9089C31.7931 43.5194 30.5927 42.7609 29.6613 41.7187C29.5381 41.5737 29.3874 41.4552 29.2182 41.3701C29.049 41.2849 28.8646 41.2349 28.676 41.2229C28.4874 41.211 28.2983 41.2373 28.1199 41.3004C27.9415 41.3635 27.7774 41.4621 27.6372 41.5904C27.4971 41.7187 27.3837 41.874 27.3037 42.0473C27.2238 42.2206 27.1789 42.4083 27.1718 42.5994C27.1646 42.7905 27.1953 42.9811 27.262 43.1601C27.3288 43.339 27.4302 43.5026 27.5604 43.6412C29.1348 45.3946 31.2524 46.553 33.5643 46.9257C33.0723 47.8014 32.3592 48.5291 31.4979 49.0342C30.6365 49.5393 29.658 49.8036 28.6626 49.8001C28.2868 49.8001 27.9265 49.9511 27.6608 50.22C27.3951 50.4889 27.2459 50.8535 27.2459 51.2337C27.2459 51.614 27.3951 51.9786 27.6608 52.2475C27.9265 52.5163 28.2868 52.6674 28.6626 52.6674C30.4139 52.6734 32.1236 52.127 33.5539 51.1041C34.9841 50.0813 36.0638 48.6327 36.6428 46.9601C38.766 46.6492 40.7409 45.6774 42.2937 44.1795C43.8466 42.6816 44.9002 40.7318 45.3087 38.6006C45.3436 38.4156 45.3422 38.2255 45.3045 38.041C45.2668 37.8566 45.1935 37.6815 45.0889 37.5258C44.9843 37.37 44.8505 37.2366 44.6949 37.1332C44.5394 37.0298 44.3652 36.9585 44.1824 36.9232ZM29.0422 31.1629C29.0422 30.7827 28.893 30.418 28.6273 30.1492C28.3616 29.8803 28.0013 29.7292 27.6255 29.7292C25.5598 29.7319 23.5795 30.5635 22.1188 32.0416C20.6581 33.5198 19.8364 35.5238 19.8337 37.6142C19.8337 37.9944 19.983 38.3591 20.2487 38.628C20.5144 38.8968 20.8747 39.0479 21.2504 39.0479C21.6262 39.0479 21.9865 38.8968 22.2522 38.628C22.5179 38.3591 22.6671 37.9944 22.6671 37.6142C22.6671 36.2834 23.1895 35.0072 24.1194 34.0662C25.0493 33.1252 26.3105 32.5965 27.6255 32.5965C28.0013 32.5965 28.3616 32.4455 28.6273 32.1766C28.893 31.9078 29.0422 31.5431 29.0422 31.1629Z" fill="black"/>
<path d="M59.501 20.0709H70.9762C71.3273 21.8114 72.3045 23.3579 73.7183 24.4108C75.1322 25.4636 76.882 25.9476 78.6285 25.7691C80.375 25.5906 81.9938 24.7621 83.171 23.4444C84.3482 22.1267 85 20.4136 85 18.6372C85 16.8609 84.3482 15.1477 83.171 13.83C81.9938 12.5123 80.375 11.6839 78.6285 11.5054C76.882 11.3268 75.1322 11.8109 73.7183 12.8637C72.3045 13.9165 71.3273 15.4631 70.9762 17.2036H59.501C58.2244 17.2065 56.9862 17.6456 55.987 18.4496C54.9878 19.2537 54.2862 20.3755 53.9958 21.6335C51.5048 19.7605 48.4856 18.7459 45.3823 18.739C45.1429 18.739 44.9119 18.7677 44.6739 18.7792C44.1359 17.8672 43.3985 17.0922 42.5182 16.5137C41.6379 15.9352 40.6383 15.5687 39.5962 15.4423C38.5541 15.3159 37.4972 15.4329 36.5068 15.7845C35.5163 16.1361 34.6188 16.7128 33.883 17.4703C32.632 16.6093 31.229 15.9999 29.7505 15.6754V11.4691C29.7505 10.7086 30.049 9.97933 30.5804 9.44161C31.1118 8.9039 31.8324 8.60181 32.5839 8.60181H49.7259C50.0769 10.3423 51.0541 11.8889 52.468 12.9417C53.8818 13.9945 55.6316 14.4786 57.3781 14.3C59.1246 14.1215 60.7434 13.2931 61.9206 11.9754C63.0979 10.6577 63.7496 8.94456 63.7496 7.16818C63.7496 5.3918 63.0979 3.67869 61.9206 2.36099C60.7434 1.04328 59.1246 0.214857 57.3781 0.0363146C55.6316 -0.142228 53.8818 0.341836 52.468 1.39466C51.0541 2.44748 50.0769 3.99405 49.7259 5.73454H32.5839C31.081 5.73454 29.6396 6.33872 28.5769 7.41415C27.5142 8.48958 26.9171 9.94818 26.9171 11.4691V15.4159C25.1233 15.4726 23.3652 15.9383 21.774 16.7783C20.1828 17.6183 18.7994 18.811 17.7271 20.2673C16.4754 19.8604 15.1476 19.7523 13.8478 19.9516C12.5479 20.1509 11.3113 20.652 10.2349 21.4158C9.15849 22.1796 8.27147 23.1853 7.64336 24.354C7.01525 25.5227 6.66311 26.8228 6.61454 28.1523C5.05602 28.7407 3.76519 29.8877 2.98699 31.3755C2.20878 32.8633 1.99735 34.5885 2.39281 36.2236C0.377488 39.2541 -0.406779 42.9538 0.202903 46.5542C0.812584 50.1546 2.76935 53.3789 5.66678 55.5576V71.825C3.94686 72.1803 2.41856 73.1691 1.37818 74.5999C0.337796 76.0307 -0.140547 77.8014 0.0358855 79.5688C0.212318 81.3362 1.03096 82.9743 2.33309 84.1656C3.63522 85.3569 5.32808 86.0165 7.08347 86.0165C8.83886 86.0165 10.5317 85.3569 11.8338 84.1656C13.136 82.9743 13.9546 81.3362 14.1311 79.5688C14.3075 77.8014 13.8291 76.0307 12.7888 74.5999C11.7484 73.1691 10.2201 72.1803 8.50016 71.825V57.2363C11.3797 58.4989 14.5954 58.7438 17.6293 57.9317C18.3783 59.466 19.4753 60.7993 20.8307 61.8227C22.1861 62.8461 23.7615 63.5306 25.4282 63.8202C27.0949 64.1099 28.8057 63.9965 30.4209 63.4894C32.036 62.9822 33.5097 62.0957 34.7217 60.9021C36.0435 61.3394 37.4148 61.6046 38.8032 61.6964C39.4846 64.5636 41.4085 66.4274 45.3341 68.023V74.5489C45.3341 76.0698 45.9311 77.5284 46.9939 78.6038C48.0566 79.6792 49.498 80.2834 51.0009 80.2834H63.8928C64.2438 82.0239 65.221 83.5705 66.6349 84.6233C68.0488 85.6761 69.7986 86.1602 71.5451 85.9817C73.2915 85.8031 74.9103 84.9747 76.0875 83.657C77.2648 82.3393 77.9165 80.6262 77.9165 78.8498C77.9165 77.0734 77.2648 75.3603 76.0875 74.0426C74.9103 72.7249 73.2915 71.8965 71.5451 71.7179C69.7986 71.5394 68.0488 72.0234 66.6349 73.0763C65.221 74.1291 64.2438 75.6757 63.8928 77.4162H51.0009C50.2494 77.4162 49.5287 77.1141 48.9974 76.5764C48.466 76.0386 48.1675 75.3093 48.1675 74.5489V69.114C49.219 69.6 50.1524 70.3135 50.9017 71.2042C51.3935 71.7974 52.0066 72.2755 52.6989 72.6055C53.3911 72.9354 54.1458 73.1094 54.9109 73.1153C55.5853 73.1153 56.2511 72.9776 56.8716 72.711C57.7904 72.3139 58.5736 71.6525 59.1242 70.8089C59.6747 69.9653 59.9683 68.9766 59.9685 67.9657C59.9685 67.4266 59.8835 66.8904 59.7164 66.3801C59.2946 65.0295 58.7244 63.7311 58.0163 62.5092C61.1123 60.3681 63.2729 57.1011 64.0486 53.3885C65.5138 51.6426 66.3921 49.4702 66.5564 47.1856C66.7206 44.9011 66.1624 42.6229 64.9624 40.6808C65.0346 40.5044 65.087 40.3224 65.1437 40.1417H70.9762C71.3273 41.8822 72.3045 43.4288 73.7183 44.4816C75.1322 45.5344 76.882 46.0185 78.6285 45.8399C80.375 45.6614 81.9938 44.833 83.171 43.5153C84.3482 42.1976 85 40.4845 85 38.7081C85 36.9317 84.3482 35.2186 83.171 33.9009C81.9938 32.5832 80.375 31.7548 78.6285 31.5762C76.882 31.3977 75.1322 31.8817 73.7183 32.9346C72.3045 33.9874 71.3273 35.534 70.9762 37.2745H65.4129C65.2567 35.7727 64.6238 34.3625 63.6091 33.2553C62.5944 32.1481 61.2524 31.4034 59.7844 31.1328C59.3634 28.588 58.2885 26.2 56.6676 24.2083V22.9381C56.6676 22.1777 56.9662 21.4484 57.4975 20.9107C58.0289 20.373 58.7496 20.0709 59.501 20.0709ZM77.918 14.3363C79.0452 14.3363 80.1262 14.7895 80.9232 15.596C81.7203 16.4026 82.1681 17.4966 82.1681 18.6372C82.1681 19.7779 81.7203 20.8719 80.9232 21.6784C80.1262 22.485 79.0452 22.9381 77.918 22.9381C76.7908 22.9381 75.7098 22.485 74.9127 21.6784C74.1157 20.8719 73.6679 19.7779 73.6679 18.6372C73.6679 17.4966 74.1157 16.4026 74.9127 15.596C75.7098 14.7895 76.7908 14.3363 77.918 14.3363ZM56.6676 2.86728C57.7948 2.86728 58.8759 3.32041 59.6729 4.12698C60.4699 4.93356 60.9177 6.02751 60.9177 7.16818C60.9177 8.30885 60.4699 9.4028 59.6729 10.2094C58.8759 11.0159 57.7948 11.4691 56.6676 11.4691C55.5405 11.4691 54.4594 11.0159 53.6624 10.2094C52.8653 9.4028 52.4176 8.30885 52.4176 7.16818C52.4176 6.02751 52.8653 4.93356 53.6624 4.12698C54.4594 3.32041 55.5405 2.86728 56.6676 2.86728ZM11.3335 78.8498C11.3335 79.9905 10.8858 81.0844 10.0887 81.891C9.29168 82.6975 8.21066 83.1507 7.08347 83.1507C5.95628 83.1507 4.87526 82.6975 4.07821 81.891C3.28117 81.0844 2.8334 79.9905 2.8334 78.8498C2.8334 77.7091 3.28117 76.6152 4.07821 75.8086C4.87526 75.002 5.95628 74.5489 7.08347 74.5489C8.21066 74.5489 9.29168 75.002 10.0887 75.8086C10.8858 76.6152 11.3335 77.7091 11.3335 78.8498ZM70.8345 74.5489C71.9617 74.5489 73.0428 75.002 73.8398 75.8086C74.6368 76.6152 75.0846 77.7091 75.0846 78.8498C75.0846 79.9905 74.6368 81.0844 73.8398 81.891C73.0428 82.6975 71.9617 83.1507 70.8345 83.1507C69.7074 83.1507 68.6263 82.6975 67.8293 81.891C67.0322 81.0844 66.5845 79.9905 66.5845 78.8498C66.5845 77.7091 67.0322 76.6152 67.8293 75.8086C68.6263 75.002 69.7074 74.5489 70.8345 74.5489ZM77.918 34.4072C79.0452 34.4072 80.1262 34.8603 80.9232 35.6669C81.7203 36.4735 82.1681 37.5674 82.1681 38.7081C82.1681 39.8488 81.7203 40.9427 80.9232 41.7493C80.1262 42.5559 79.0452 43.009 77.918 43.009C76.7908 43.009 75.7098 42.5559 74.9127 41.7493C74.1157 40.9427 73.6679 39.8488 73.6679 38.7081C73.6679 37.5674 74.1157 36.4735 74.9127 35.6669C75.7098 34.8603 76.7908 34.4072 77.918 34.4072ZM62.6532 38.0128C62.6532 38.7267 62.4732 39.4292 62.1276 40.0514C61.7039 40.8035 61.0606 41.4045 60.2859 41.7718C60.1174 41.8517 59.9661 41.9644 59.8407 42.1035C59.7153 42.2425 59.6182 42.4052 59.5549 42.5823C59.4916 42.7594 59.4635 42.9473 59.4719 43.1354C59.4804 43.3235 59.5255 43.508 59.6044 43.6785C59.6834 43.849 59.7948 44.002 59.9322 44.1289C60.0697 44.2559 60.2304 44.3541 60.4054 44.4182C60.5804 44.4822 60.7661 44.5107 60.9519 44.5021C61.1378 44.4935 61.3202 44.448 61.4886 44.3681C62.0773 44.085 62.6234 43.7192 63.1107 43.2814C63.7038 44.6805 63.8875 46.2226 63.6398 47.7243C63.3922 49.226 62.7238 50.6242 61.7139 51.7527L61.687 51.7842C60.5093 53.0731 58.9505 53.9409 57.2443 54.2576C55.5381 54.5742 53.7764 54.3226 52.2235 53.5404C51.8082 53.3294 51.4131 53.0799 51.0434 52.795C51.7264 51.9204 52.1489 50.867 52.2613 49.7581C52.3738 48.6492 52.1714 47.5309 51.6781 46.5343C51.5976 46.3615 51.4838 46.2068 51.3434 46.0791C51.2031 45.9515 51.0389 45.8535 50.8606 45.7909C50.6823 45.7284 50.4934 45.7025 50.3051 45.7149C50.1167 45.7272 49.9327 45.7775 49.7639 45.8628C49.595 45.9481 49.4447 46.0667 49.3217 46.2116C49.1988 46.3565 49.1057 46.5248 49.0479 46.7066C48.9901 46.8884 48.9688 47.0801 48.9853 47.2703C49.0017 47.4606 49.0555 47.6456 49.1436 47.8145C49.4641 48.4646 49.5427 49.2097 49.365 49.9136C49.1874 50.6175 48.7653 51.2331 48.176 51.648C47.8228 51.8868 47.4239 52.0477 47.0052 52.1203C46.5865 52.1929 46.1574 52.1756 45.7458 52.0694C45.3342 51.9633 44.9492 51.7708 44.6159 51.5043C44.2826 51.2378 44.0084 50.9033 43.8112 50.5226C43.643 50.1825 43.3483 49.924 42.9917 49.8038C42.6352 49.6836 42.2461 49.7117 41.91 49.8818C41.5739 50.052 41.3184 50.3503 41.1996 50.7111C41.0808 51.0719 41.1086 51.4656 41.2767 51.8057C41.9317 53.1567 43.0781 54.1985 44.4756 54.7127C45.873 55.2269 47.4129 55.1737 48.7724 54.5641C49.4255 55.1662 50.1537 55.6823 50.9371 56.0952C52.2981 56.8075 53.7957 57.2123 55.3264 57.2816C56.8571 57.3509 58.3844 57.0831 59.8028 56.4966C58.9342 57.9613 57.7612 59.2173 56.3651 60.1776C54.969 61.1378 53.3832 61.7794 51.7177 62.0576C51.534 62.0876 51.3579 62.1538 51.1995 62.2526C51.0411 62.3514 50.9035 62.4809 50.7945 62.6335C50.6855 62.7861 50.6073 62.959 50.5643 63.1422C50.5213 63.3254 50.5144 63.5154 50.544 63.7013C50.5736 63.8872 50.639 64.0654 50.7367 64.2257C50.8343 64.386 50.9622 64.5253 51.113 64.6356C51.2639 64.7459 51.4347 64.8251 51.6157 64.8685C51.7968 64.912 51.9845 64.919 52.1682 64.8891C53.3281 64.6988 54.4605 64.3651 55.54 63.8956C56.1605 64.9608 56.6563 66.0948 57.019 67.2761C57.0941 67.4997 57.1323 67.7348 57.1309 67.9699C57.1305 68.4191 56.9997 68.8582 56.7549 69.2328C56.5102 69.6074 56.1621 69.9011 55.7539 70.0774C55.2882 70.2629 54.7762 70.2935 54.2921 70.1646C53.8081 70.0357 53.3773 69.754 53.0622 69.3606C51.7318 67.7815 49.9903 66.6118 48.0357 65.9844C43.9089 64.5851 42.3491 63.3078 41.7315 61.6276C42.7817 61.5215 43.8196 61.3146 44.8312 61.0097C45.1904 60.8979 45.491 60.6463 45.6669 60.3102C45.8428 59.9741 45.8795 59.5811 45.769 59.2176C45.6586 58.8541 45.4099 58.5499 45.0778 58.372C44.7457 58.194 44.3574 58.1568 43.9982 58.2686C42.981 58.584 41.9298 58.7804 40.8687 58.852C38.816 59.0163 36.7534 58.7004 34.8407 57.9288C34.5657 57.8346 34.2698 57.8222 33.988 57.8931C33.7063 57.964 33.4505 58.1152 33.2512 58.3288C32.3429 59.3994 31.1711 60.2081 29.8545 60.6729C28.5379 61.1377 27.1233 61.242 25.7541 60.9754C24.3848 60.7088 23.1095 60.0807 22.0574 59.1547C21.0052 58.2286 20.2137 57.0377 19.7628 55.7024V55.6866L19.7558 55.6751C19.3791 54.5685 19.2464 53.392 19.3668 52.228C19.4872 51.064 19.8579 49.9407 20.4528 48.937C20.6472 48.6106 20.7056 48.2194 20.615 47.8495C20.5244 47.4795 20.2922 47.1611 19.9697 46.9644C19.6471 46.7676 19.2605 46.7086 18.895 46.8002C18.5294 46.8919 18.2148 47.1268 18.0203 47.4532C17.5619 48.233 17.2025 49.0683 16.9507 49.9392C16.9011 49.9392 16.853 49.9621 16.809 49.9621C16.0182 49.9583 15.2611 49.6375 14.7035 49.07C14.1459 48.5025 13.8332 47.7346 13.834 46.9343V46.8898C13.8336 46.7027 13.7966 46.5176 13.725 46.3451C13.6534 46.1726 13.5487 46.0162 13.4169 45.885C13.2851 45.7538 13.1289 45.6503 12.9573 45.5806C12.7857 45.511 12.6022 45.4765 12.4173 45.4791C12.0394 45.484 11.6787 45.6396 11.4134 45.912C11.1482 46.1845 10.9998 46.5518 11.0006 46.9343C11.0023 48.4401 11.5751 49.8879 12.6008 50.979C13.6264 52.07 15.0268 52.7211 16.513 52.7978C16.513 52.8881 16.496 52.977 16.496 53.0673C16.496 53.787 16.5668 54.5038 16.7056 55.2092C14.6427 55.7204 12.4788 55.6279 10.4658 54.9426C8.45278 54.2573 6.67361 53.0074 5.33548 51.3384C3.99735 49.6694 3.15533 47.65 2.90749 45.5154C2.65965 43.3809 3.01619 41.219 3.93558 39.2815C4.40026 39.8263 4.94568 40.298 5.55203 40.675C5.87384 40.8714 6.25956 40.9304 6.62434 40.839C6.80496 40.7937 6.97501 40.7129 7.12476 40.6011C7.27452 40.4894 7.40105 40.3488 7.49714 40.1876C7.59323 40.0263 7.657 39.8475 7.6848 39.6613C7.71259 39.4751 7.70388 39.2852 7.65915 39.1025C7.61442 38.9197 7.53456 38.7476 7.42412 38.5961C7.31367 38.4445 7.17481 38.3165 7.01547 38.2192C6.19396 37.7164 5.57242 36.9383 5.25877 36.02C4.93374 35.0896 4.94937 34.0721 5.30282 33.1524C5.65626 32.2326 6.32406 31.4718 7.18484 31.008C8.04562 30.5443 9.04225 30.4085 9.9936 30.6252C10.9449 30.842 11.7879 31.397 12.3691 32.1894C12.5933 32.4947 12.9281 32.6974 13.2999 32.7529C13.6717 32.8084 14.0501 32.7122 14.3518 32.4854C14.6535 32.2586 14.8538 31.9198 14.9087 31.5435C14.9636 31.1673 14.8685 30.7844 14.6443 30.479C14.046 29.6585 13.2757 28.9822 12.3885 28.4986C11.5013 28.015 10.5194 27.7361 9.51309 27.682C9.61284 26.9011 9.87167 26.1496 10.2732 25.4752C10.6747 24.8007 11.2102 24.2179 11.8458 23.7637C12.4813 23.3094 13.2032 22.9936 13.9656 22.8362C14.728 22.6788 15.5143 22.6832 16.275 22.8492C16.0738 23.341 15.9066 23.8456 15.7734 24.3603C15.7188 24.545 15.7015 24.7391 15.7227 24.9307C15.7439 25.1224 15.8031 25.3077 15.8967 25.4757C15.9903 25.6437 16.1164 25.7908 16.2676 25.9083C16.4187 26.0258 16.5917 26.1112 16.7762 26.1595C16.9607 26.2077 17.153 26.2178 17.3414 26.1891C17.5299 26.1604 17.7107 26.0936 17.873 25.9925C18.0353 25.8914 18.1758 25.7583 18.2861 25.601C18.3963 25.4437 18.4741 25.2655 18.5147 25.0771C18.8739 23.6548 19.5689 22.342 20.54 21.2515C21.5111 20.161 22.7294 19.3254 24.0901 18.8165C25.4508 18.3076 26.9132 18.1406 28.3517 18.3299C29.7903 18.5192 31.1619 19.059 32.3487 19.9031C32.0408 20.6976 31.8804 21.5428 31.8756 22.3962C31.8756 22.7764 32.0248 23.1411 32.2905 23.41C32.5562 23.6788 32.9165 23.8298 33.2922 23.8298C33.668 23.8298 34.0283 23.6788 34.294 23.41C34.5597 23.1411 34.7089 22.7764 34.7089 22.3962C34.6988 21.8476 34.7969 21.3025 34.9974 20.7927C35.1978 20.2829 35.4967 19.8186 35.8765 19.4271C36.2563 19.0355 36.7094 18.7244 37.2094 18.5121C37.7093 18.2998 38.2461 18.1904 38.7883 18.1904C39.3305 18.1904 39.8673 18.2998 40.3672 18.5121C40.8672 18.7244 41.3203 19.0355 41.7001 19.4271C42.0799 19.8186 42.3788 20.2829 42.5792 20.7927C42.7797 21.3025 42.8778 21.8476 42.8677 22.3962C42.8677 22.7764 43.0169 23.1411 43.2826 23.41C43.5483 23.6788 43.9086 23.8298 44.2843 23.8298C44.6601 23.8298 45.0204 23.6788 45.2861 23.41C45.5518 23.1411 45.701 22.7764 45.701 22.3962C45.6895 22.1336 45.6634 21.8718 45.6231 21.612C48.3026 21.6838 50.879 22.6726 52.9315 24.4172C54.984 26.1617 56.3915 28.5589 56.9241 31.2174C56.0205 31.4349 55.1702 31.8363 54.425 32.3972C54.1244 32.6254 53.9257 32.965 53.8726 33.3414C53.8194 33.7178 53.9162 34.1001 54.1417 34.4043C54.3671 34.7085 54.7027 34.9096 55.0747 34.9634C55.4466 35.0171 55.8245 34.9192 56.125 34.691C56.7315 34.2292 57.4533 33.9479 58.2092 33.8787C58.9651 33.8096 59.7251 33.9555 60.4035 34.2999C61.0819 34.6442 61.6518 35.1735 62.049 35.8279C62.4462 36.4824 62.655 37.2361 62.6517 38.0042L62.6532 38.0128Z" fill="black"/>
</svg>
