<svg width="85" height="79" viewBox="0 0 85 79" fill="none" xmlns="http://www.w3.org/2000/svg">
<path d="M81.1362 50.8288H3.86367C1.73868 50.8288 0 49.0693 0 46.9189V3.90995C0 1.7595 1.73868 0 3.86367 0H81.1363C83.2613 0 85 1.7595 85 3.90995V46.9189C84.9998 49.0693 83.2612 50.8288 81.1362 50.8288Z" fill="#0E9347"/>
<path d="M71.4774 35.1891C67.0342 35.1891 62.9774 37.3395 60.6592 40.8584C58.7274 39.8811 56.6024 39.099 54.0911 39.099C47.3298 39.099 41.7275 44.182 40.7616 50.8287H81.1365C83.0683 50.8287 84.6137 49.4603 85.0002 47.5053C84.2274 40.663 78.432 35.1891 71.4774 35.1891Z" fill="#0D8944"/>
<path d="M73.4093 46.9187H11.5912C11.5912 42.6178 8.11401 39.099 3.86401 39.099V11.7297C8.11401 11.7297 11.5912 8.21086 11.5912 3.90997H73.4093C73.4093 8.21086 76.8865 11.7297 81.1365 11.7297V39.099C76.8865 39.099 73.4093 42.6178 73.4093 46.9187Z" fill="#3BB54A"/>
<path d="M71.4771 35.1891C67.0339 35.1891 62.9771 37.3395 60.6589 40.8584C58.7271 39.8811 56.6021 39.099 54.0908 39.099C48.6817 39.099 44.0454 42.2269 41.9204 46.9188H73.409C73.409 42.6179 76.6931 39.2944 80.9431 39.099C78.4317 36.753 75.1477 35.1891 71.4771 35.1891Z" fill="#0E9347"/>
<path d="M42.4996 43.009C51.0349 43.009 57.9541 35.1317 57.9541 25.4145C57.9541 15.6973 51.0349 7.82001 42.4996 7.82001C33.9643 7.82001 27.045 15.6973 27.045 25.4145C27.045 35.1317 33.9643 43.009 42.4996 43.009Z" fill="#0E9347"/>
<path d="M19.3185 29.3243C21.4524 29.3243 23.1822 27.5738 23.1822 25.4144C23.1822 23.255 21.4524 21.5045 19.3185 21.5045C17.1847 21.5045 15.4548 23.255 15.4548 25.4144C15.4548 27.5738 17.1847 29.3243 19.3185 29.3243Z" fill="#0E9347"/>
<path d="M65.6814 29.3243C67.8153 29.3243 69.5451 27.5738 69.5451 25.4144C69.5451 23.255 67.8153 21.5045 65.6814 21.5045C63.5476 21.5045 61.8177 23.255 61.8177 25.4144C61.8177 27.5738 63.5476 29.3243 65.6814 29.3243Z" fill="#0E9347"/>
<path d="M44.4319 23.4594H40.5682C39.4091 23.4594 38.6365 22.6774 38.6365 21.5046C38.6365 20.3316 39.4093 19.5497 40.5682 19.5497H46.3636C47.5228 19.5497 48.2954 18.7676 48.2954 17.5948C48.2954 16.4218 47.5226 15.6399 46.3636 15.6399H44.4319C44.4319 14.4669 43.6591 13.685 42.5001 13.685C41.341 13.685 40.5684 14.4671 40.5684 15.6399C37.2843 15.6399 34.7729 18.1813 34.7729 21.5047C34.7729 24.8282 37.2843 27.3696 40.5684 27.3696H44.4321C45.5912 27.3696 46.3638 28.1516 46.3638 29.3244C46.3638 30.4974 45.591 31.2793 44.4321 31.2793H38.6366C37.4775 31.2793 36.7049 32.0614 36.7049 33.2342C36.7049 34.4072 37.4777 35.1891 38.6366 35.1891H40.5684C40.5684 36.3621 41.3412 37.144 42.5001 37.144C43.6593 37.144 44.4319 36.362 44.4319 35.1891C47.716 35.1891 50.2273 32.6477 50.2273 29.3243C50.2273 26.0008 47.716 23.4594 44.4319 23.4594Z" fill="#89C763"/>
<path d="M50.2275 66.4687C57.6959 66.4687 63.7503 60.3418 63.7503 52.784C63.7503 45.2261 57.6959 39.0992 50.2275 39.0992C42.7591 39.0992 36.7047 45.2261 36.7047 52.784C36.7047 60.3418 42.7591 66.4687 50.2275 66.4687Z" fill="#FFCA5D"/>
<path d="M67.6136 62.5585C75.082 62.5585 81.1364 56.4317 81.1364 48.8738C81.1364 41.3159 75.082 35.1891 67.6136 35.1891C60.1452 35.1891 54.0908 41.3159 54.0908 48.8738C54.0908 56.4317 60.1452 62.5585 67.6136 62.5585Z" fill="#F6B545"/>
<path d="M67.6136 35.1891C60.0795 35.1891 54.0908 41.2495 54.0908 48.8738C54.0908 56.4982 60.0795 62.5585 67.6136 62.5585C75.1477 62.5585 81.1364 56.4982 81.1364 48.8738C81.1364 41.2495 75.1477 35.1891 67.6136 35.1891ZM67.6136 58.6486C62.2045 58.6486 57.9545 54.3477 57.9545 48.8738C57.9545 43.3999 62.2045 39.099 67.6136 39.099C73.0227 39.099 77.2727 43.3999 77.2727 48.8738C77.2727 54.3477 73.0227 58.6486 67.6136 58.6486Z" fill="#FFCB5B"/>
<path d="M67.6138 62.3629C75.1479 62.5584 81.1366 56.3025 81.1366 48.8737H80.9433C79.9774 48.8737 79.2046 49.6558 79.0116 50.6332C78.6252 53.3702 77.2729 55.9116 75.3411 57.6711C73.7957 59.235 71.6707 60.2124 69.3525 60.6034C69.1239 60.6024 68.8974 60.6473 68.686 60.7354C68.4746 60.8235 68.2826 60.953 68.1209 61.1166C67.9593 61.2802 67.8313 61.4745 67.7442 61.6884C67.6572 61.9023 67.6128 62.1316 67.6138 62.3629Z" fill="#F6B545"/>
<path d="M67.6136 35.3846C60.0795 35.189 54.0908 41.445 54.0908 48.8738H54.2841C55.2499 48.8738 56.0227 48.0917 56.2158 47.1143C56.6021 44.3773 57.9545 41.8359 59.8862 40.0764C61.4317 38.5125 63.5567 37.535 65.8749 37.1439C66.1035 37.1449 66.33 37.1001 66.5414 37.012C66.7528 36.924 66.9448 36.7944 67.1065 36.6309C67.2681 36.4673 67.3962 36.273 67.4832 36.0591C67.5703 35.8451 67.6146 35.6159 67.6136 35.3846Z" fill="#FFE27A"/>
<path d="M59.307 50.2424C59.307 44.7685 63.557 40.4676 68.9661 40.4676C71.2844 40.4676 73.4094 41.2497 75.1479 42.8136C73.2161 40.4676 70.7048 39.0992 67.6139 39.0992C62.2048 39.0992 57.9548 43.4001 57.9548 48.874C57.9548 52.0019 59.307 54.5433 61.432 56.3028C60.0798 54.7389 59.307 52.5884 59.307 50.2424Z" fill="#F19920"/>
<path d="M73.4091 54.9344C73.2159 54.9344 73.0228 54.9344 72.8295 54.7388C72.4432 54.3479 72.4432 53.7614 72.8295 53.3704C73.9887 52.1974 74.5682 50.4379 74.5682 48.874C74.5682 48.2875 74.9545 47.8965 75.5341 47.8965C76.1136 47.8965 76.5 48.2875 76.5 48.874C76.5 51.0244 75.7272 53.1749 74.375 54.7388C73.9887 54.9344 73.6022 54.9344 73.4091 54.9344Z" fill="#FFCB5B"/>
<path d="M67.6138 54.7388C66.4546 54.7388 65.682 53.9567 65.682 52.7839V44.9642C65.682 43.7912 66.4548 43.0093 67.6138 43.0093C68.7727 43.0093 69.5455 43.7913 69.5455 44.9642V52.7839C69.5455 53.9567 68.7729 54.7388 67.6138 54.7388Z" fill="#F19920"/>
<path d="M74.7609 60.4081C73.4087 55.5208 69.9313 51.6108 65.4881 49.8515C64.7153 45.355 61.8177 41.4452 58.1472 39.0992C55.829 41.6406 54.2836 44.9641 54.2836 48.6785C54.2836 56.3028 60.2722 62.3632 67.8063 62.3632C70.3178 62.5586 72.6359 61.7767 74.7609 60.4081Z" fill="#F19920"/>
<path d="M61.4321 56.3028C60.0799 54.5433 59.1138 52.3929 59.1138 50.047C59.1128 48.7202 59.3874 47.408 59.9199 46.1956C60.4523 44.9831 61.2308 43.8975 62.2047 43.0092C61.8184 42.4227 61.4319 42.0318 61.0456 41.6408C59.1138 43.4003 57.9547 45.9417 57.9547 48.8742C57.9549 52.0019 59.3071 54.5433 61.4321 56.3028ZM65.6821 50.047V52.784C65.6821 53.957 66.4549 54.7389 67.6138 54.7389C68.7728 54.7389 69.5456 53.9568 69.5456 52.784V52.393C68.3866 51.4154 67.0344 50.6335 65.6821 50.047Z" fill="#E78825"/>
<path d="M74.7612 60.4081C74.3749 59.0397 73.9884 57.8667 73.2158 56.6937C71.6704 57.8667 69.7386 58.6486 67.6136 58.6486C62.2045 58.6486 57.9545 54.3477 57.9545 48.8738C57.9545 45.9413 59.1136 43.3999 61.0454 41.6404C60.0795 40.663 59.1136 39.8809 57.9545 39.2944C55.6363 41.8358 54.0908 45.1593 54.0908 48.8737C54.0908 56.498 60.0795 62.5584 67.6136 62.5584C70.3182 62.5586 72.6362 61.7767 74.7612 60.4081Z" fill="#F6B545"/>
<path d="M74.182 58.6486C72.8298 59.626 71.0911 60.2125 69.3524 60.6034C68.3866 60.799 67.6138 61.5809 67.6138 62.5583C70.3183 62.5583 72.6366 61.7763 74.7616 60.4079L74.182 58.6486Z" fill="#F19920"/>
<path d="M57.9545 39.2948C55.6363 41.8362 54.0908 45.1596 54.0908 48.874H54.2841C55.2499 48.874 56.0227 48.092 56.2158 47.1145C56.6021 44.3776 57.9545 42.0316 59.693 40.2722C59.1136 40.0767 58.5341 39.6857 57.9545 39.2948Z" fill="#FFCB5B"/>
<path d="M50.2275 66.4687C57.6959 66.4687 63.7503 60.3418 63.7503 52.784C63.7503 45.2261 57.6959 39.0992 50.2275 39.0992C42.7591 39.0992 36.7047 45.2261 36.7047 52.784C36.7047 60.3418 42.7591 66.4687 50.2275 66.4687Z" fill="#F6B545"/>
<path d="M48.2952 62.5583C48.2952 63.9267 48.4884 65.0997 48.8747 66.4683H50.2269C57.761 66.4683 63.7497 60.4079 63.7497 52.7835C63.7497 51.4152 63.5565 50.2422 63.1701 48.8736H61.8179C54.2838 48.8738 48.2952 54.9342 48.2952 62.5583Z" fill="#F19920"/>
<path d="M50.2275 39.0992C42.6934 39.0992 36.7047 45.1596 36.7047 52.784C36.7047 60.4083 42.6934 66.4687 50.2275 66.4687C57.7616 66.4687 63.7503 60.4081 63.7503 52.784C63.7503 45.1598 57.7616 39.0992 50.2275 39.0992ZM50.2275 62.5586C44.8184 62.5586 40.5684 58.2577 40.5684 52.7838C40.5684 47.3099 44.8184 43.009 50.2275 43.009C55.6366 43.009 59.8866 47.3099 59.8866 52.7838C59.8866 58.2577 55.6366 62.5586 50.2275 62.5586Z" fill="#FFCB5B"/>
<path d="M50.2268 66.2729C57.7609 66.4685 63.7496 60.2127 63.7496 52.7839H63.5564C62.5905 52.7839 61.8177 53.566 61.6246 54.5434C61.2383 57.2804 59.8859 59.8218 57.9542 61.5813C56.4087 63.1452 54.2837 64.1227 51.9655 64.5138C51.7369 64.5128 51.5104 64.5576 51.299 64.6456C51.0877 64.7337 50.8956 64.8632 50.734 65.0268C50.5723 65.1903 50.4443 65.3846 50.3573 65.5985C50.2702 65.8124 50.2259 66.0416 50.2268 66.2729Z" fill="#F6B545"/>
<path d="M50.2275 39.2948C42.6934 39.0993 36.7047 45.3552 36.7047 52.784H36.898C37.8638 52.784 38.6366 52.0019 38.8297 51.0245C39.216 48.2875 40.5684 45.7461 42.5001 43.9866C44.0456 42.4227 46.1706 41.4453 48.4888 41.0541C48.7174 41.0551 48.9439 41.0103 49.1553 40.9223C49.3667 40.8342 49.5587 40.7047 49.7204 40.5411C49.882 40.3775 50.0101 40.1832 50.0971 39.9693C50.1841 39.7554 50.2285 39.5261 50.2275 39.2948Z" fill="#FFE27A"/>
<path d="M41.9202 54.1523C41.9202 48.6784 46.1702 44.3775 51.5793 44.3775C53.8976 44.3775 56.0226 45.1595 57.7611 46.7235C55.8293 44.3775 53.3179 43.0091 50.227 43.0091C44.8179 43.0091 40.5679 47.31 40.5679 52.7839C40.5679 55.9118 41.9201 58.4532 44.0451 60.2127C42.693 58.6487 41.9202 56.4983 41.9202 54.1523Z" fill="#F19920"/>
<path d="M56.0226 58.844C55.8294 58.844 55.6363 58.844 55.4431 58.6484C55.0567 58.2575 55.0567 57.671 55.4431 57.28C56.6022 56.107 57.1817 54.3475 57.1817 52.7836C57.1817 52.1971 57.5681 51.8062 58.1476 51.8062C58.7272 51.8062 59.1135 52.1971 59.1135 52.7836C59.1135 54.934 58.3407 57.0845 56.9885 58.6484C56.602 58.844 56.2157 58.844 56.0226 58.844Z" fill="#FFCB5B"/>
<path d="M50.2269 58.6486C49.0678 58.6486 48.2952 57.8666 48.2952 56.6937V48.874C48.2952 47.701 49.068 46.9191 50.2269 46.9191C51.386 46.9191 52.1587 47.7012 52.1587 48.874V56.6937C52.1588 57.8666 51.386 58.6486 50.2269 58.6486Z" fill="#F19920"/>
<path d="M59.1132 49.0692C59.4995 50.2422 59.886 51.4152 59.886 52.7835C59.886 58.2574 55.636 62.5583 50.2269 62.5583C49.6474 62.5583 48.8747 62.5583 48.2952 62.3628V62.5583C48.2952 63.9267 48.4884 65.0997 48.8747 66.4683H50.2269C57.761 66.4683 63.7497 60.4079 63.7497 52.7835C63.7497 51.4152 63.5565 50.2422 63.1701 48.8736H61.8179C60.8517 48.8738 60.0791 48.8738 59.1132 49.0692Z" fill="#F6B545"/>
<path d="M59.8865 78.1984C67.355 78.1984 73.4093 72.0716 73.4093 64.5137C73.4093 56.9558 67.355 50.829 59.8865 50.829C52.4181 50.829 46.3638 56.9558 46.3638 64.5137C46.3638 72.0716 52.4181 78.1984 59.8865 78.1984Z" fill="#F6B545"/>
<path d="M59.8865 50.829C52.3524 50.829 46.3638 56.8894 46.3638 64.5137C46.3638 72.138 52.3524 78.1984 59.8865 78.1984C67.4206 78.1984 73.4093 72.138 73.4093 64.5137C73.4093 56.8894 67.4206 50.829 59.8865 50.829ZM59.8865 74.2885C54.4774 74.2885 50.2274 69.9876 50.2274 64.5137C50.2274 59.0398 54.4774 54.7389 59.8865 54.7389C65.2957 54.7389 69.5456 59.0398 69.5456 64.5137C69.5456 69.9876 65.2957 74.2885 59.8865 74.2885Z" fill="#FFCB5B"/>
<path d="M59.8859 78.0028C67.42 78.1983 73.4087 71.9424 73.4087 64.5136H73.2154C72.2495 64.5136 71.4767 65.2957 71.2837 66.2731C70.8973 69.0101 69.545 71.5514 67.6132 73.3109C66.0678 74.8749 63.9428 75.8523 61.6246 76.2434C61.396 76.2424 61.1695 76.2873 60.9581 76.3753C60.7467 76.4634 60.5546 76.5929 60.393 76.7565C60.2313 76.9201 60.1033 77.1144 60.0163 77.3283C59.9292 77.5422 59.8849 77.7715 59.8859 78.0028Z" fill="#F6B545"/>
<path d="M59.8865 51.0244C52.3524 50.8289 46.3638 57.0848 46.3638 64.5136H46.557C47.5229 64.5136 48.2957 63.7315 48.4888 62.7541C48.8751 60.0171 50.2274 57.4758 52.1592 55.7163C53.7046 54.1523 55.8296 53.1749 58.1479 52.7838C58.3765 52.7848 58.603 52.7399 58.8144 52.6519C59.0257 52.5638 59.2178 52.4343 59.3794 52.2707C59.5411 52.1071 59.6691 51.9128 59.7562 51.6989C59.8432 51.485 59.8875 51.2557 59.8865 51.0244Z" fill="#FFE27A"/>
<path d="M51.5792 65.8819C51.5792 60.408 55.8292 56.1072 61.2383 56.1072C63.5565 56.1072 65.6815 56.8892 67.42 58.4532C65.4883 56.1072 62.9768 54.7388 59.8859 54.7388C54.4768 54.7388 50.2268 59.0397 50.2268 64.5136C50.2268 67.6414 51.579 70.1828 53.704 71.9423C52.3518 70.3784 51.5792 68.2279 51.5792 65.8819Z" fill="#F19920"/>
<path d="M65.682 70.5736C65.4888 70.5736 65.2957 70.5736 65.1025 70.378C64.7162 69.9871 64.7162 69.4006 65.1025 69.0097C66.2616 67.8367 66.8412 66.0772 66.8412 64.5132C66.8412 63.9267 67.2275 63.5358 67.807 63.5358C68.3866 63.5358 68.7729 63.9267 68.7729 64.5132C68.7729 66.6637 68.0001 68.8141 66.6479 70.378C66.2616 70.5736 65.8753 70.5736 65.682 70.5736Z" fill="#FFCB5B"/>
<path d="M59.8866 70.3782C58.7275 70.3782 57.9548 69.5962 57.9548 68.4233V60.6034C57.9548 59.4304 58.7276 58.6486 59.8866 58.6486C61.0457 58.6486 61.8183 59.4306 61.8183 60.6034V68.4232C61.8185 69.5962 61.0457 70.3782 59.8866 70.3782Z" fill="#F19920"/>
</svg>
