<svg width="63" height="85" viewBox="0 0 63 85" fill="none" xmlns="http://www.w3.org/2000/svg">
<path d="M56.9695 10.5739H54.631L31.2657 13.9944L7.90051 10.5739H5.22437C2.33899 10.5739 9.15712e-09 8.20686 9.15712e-09 5.28693C-0.000168993 2.367 2.33899 0 5.22437 0H56.9695C59.8548 0 62.1938 2.367 62.1938 5.28693C62.194 8.20686 59.8548 10.5739 56.9695 10.5739Z" fill="#B98080"/>
<path d="M57.3075 0H52.2374C55.1228 0 57.4618 2.367 57.4618 5.28693C57.4618 8.20686 55.1228 10.5739 52.2374 10.5739H57.3075C60.1929 10.5739 62.5319 8.20686 62.5319 5.28693C62.532 2.367 60.1929 0 57.3075 0Z" fill="#AE6C6C"/>
<path d="M54.2931 17.2109V10.5739H7.90063V17.2109C7.90063 27.5066 14.4035 36.2642 23.4794 39.5096C24.0905 39.7282 24.6196 40.1331 24.9938 40.6686C25.3681 41.2042 25.569 41.8439 25.569 42.4998C25.569 43.1557 25.3681 43.7955 24.9938 44.331C24.6196 44.8665 24.0905 45.2715 23.4794 45.49C14.4037 48.7354 7.90063 57.493 7.90063 67.7888V74.4258H54.2929V67.7888C54.2929 57.493 47.7901 48.7354 38.7141 45.49C38.1029 45.2716 37.5737 44.8667 37.1994 44.3312C36.825 43.7956 36.624 43.1558 36.6239 42.4998H36.9619C36.9619 41.1554 37.4615 39.9575 38.7141 39.5096C47.7901 36.2644 54.2931 27.5066 54.2931 17.2109Z" fill="#EFEDEF"/>
<path d="M7.90063 10.5739V13.9258H46.3148C48.1076 13.9258 49.561 15.3966 49.561 17.2109C49.561 27.4747 43.0984 36.2098 34.0667 39.4792C32.9493 39.8836 32.0945 40.8491 31.925 42.0377C31.8194 42.7653 31.9668 43.5074 32.3421 44.1371C32.7173 44.7668 33.2971 45.245 33.9822 45.49C43.058 48.7354 49.561 57.4932 49.561 67.7888V74.4258H54.6311V67.7888C54.6311 57.525 48.1684 48.7898 39.1368 45.5205C38.0194 45.116 37.1645 44.1506 36.995 42.9619C36.8894 42.2344 37.0369 41.4923 37.4121 40.8626C37.7874 40.2328 38.3672 39.7546 39.0523 39.5096C48.1281 36.2642 54.6311 27.5065 54.6311 17.2109V10.5739H7.90063Z" fill="#D7D0D6"/>
<path d="M56.9695 85H5.22437C2.33899 85 0 82.633 0 79.7131C0 76.7931 2.33899 74.4261 5.22437 74.4261H7.90085L31.2661 71.0056L54.6313 74.4261H56.9698C59.8552 74.4261 62.1942 76.7931 62.1942 79.7131C62.194 82.633 59.8548 85 56.9695 85Z" fill="#B98080"/>
<path d="M57.3075 74.4261H52.2374C55.1228 74.4261 57.4618 76.7931 57.4618 79.7131C57.4618 82.633 55.1228 85 52.2374 85H57.3075C60.1929 85 62.5319 82.633 62.5319 79.7131C62.532 76.7931 60.1929 74.4261 57.3075 74.4261Z" fill="#AE6C6C"/>
<path d="M42.5173 55.8771H40.0564C37.5817 55.8771 35.1324 54.0654 34.7276 51.595L33.7236 45.4666C33.2125 42.3474 35.59 39.5098 38.7144 39.5098C44.7773 37.3418 49.6884 32.7118 52.2834 26.8088H9.91048C12.5053 32.712 17.4165 37.3418 23.4795 39.5098C26.6038 39.5098 28.9814 42.3474 28.4703 45.4666L27.4663 51.595C27.0615 54.0654 24.95 55.8771 22.4755 55.8771H19.6766C13.2251 55.8771 7.93603 61.1302 7.90122 67.6588L7.90088 67.7891V74.4261H54.2932V67.7891L54.2928 67.6588C54.2578 61.1302 48.9688 55.8771 42.5173 55.8771Z" fill="#FED402"/>
<path d="M54.6308 67.6588C54.5958 61.1302 49.3069 55.8771 42.8554 55.8771H40.0564C37.5817 55.8771 35.4704 54.0654 35.0656 51.595L34.0616 45.4666C33.5505 42.3474 35.928 39.5098 39.0524 39.5098C45.1153 37.3418 50.0264 32.7118 52.6214 26.8088H47.5513C44.9565 32.712 40.0453 37.3418 33.9823 39.5098C30.858 39.5098 28.4804 42.3474 28.9915 45.4666L29.9955 51.595C30.4003 54.0654 32.5118 55.8771 34.9863 55.8771H37.7854C44.2368 55.8771 49.5259 61.1302 49.5608 67.6588L49.5611 67.7891V74.4261H54.6312V67.7891L54.6308 67.6588Z" fill="#FAC600"/>
</svg>
